<svg width="18" height="18" viewBox="0 0 18 18" fill="none" xmlns="http://www.w3.org/2000/svg">
  <path
    d="M6.68251 15.5025C6.54001 15.5025 6.39751 15.45 6.28501 15.3375C6.06751 15.12 6.06751 14.76 6.28501 14.5425L11.175 9.6525C11.535 9.2925 11.535 8.7075 11.175 8.3475L6.28501 3.4575C6.06751 3.24 6.06751 2.88 6.28501 2.6625C6.50251 2.445 6.86251 2.445 7.08001 2.6625L11.97 7.5525C12.3525 7.935 12.57 8.4525 12.57 9C12.57 9.5475 12.36 10.065 11.97 10.4475L7.08001 15.3375C6.96751 15.4425 6.82501 15.5025 6.68251 15.5025Z"
    fill="#1D1D2E" />
</svg>